# xmcd
#
# Track frame offsets: 
#        150
#        12877
#        27965
#        42472
#        58130
#        73532
#        87290
#        105235
#        119302
#        133560
#        145922
#
# Disc length: 2153 seconds
#
# Revision: 1
# Processed by: cddbd v1.4PL0 Copyright (c) Steve Scherf et al.
# Submitted via: ExactAudioCopy v0.90b3
#
DISCID=9108670b
DTITLE=Mark Chesnutt - Mark Chesnutt
DYEAR=2002
DGENRE=Country
TTITLE0=Don't Know Why I Do It
TTITLE1=She Was
TTITLE2=Sacred As A Sunday
TTITLE3=I'm In Love With A Married Woman
TTITLE4=Population Minus One
TTITLE5=You'd Be Wrong
TTITLE6=I Want My Baby Back
TTITLE7=Just Right For You
TTITLE8=My Dreams
TTITLE9=I Drew Me
TTITLE10=Good Night To Be Lonely
EXTD=scanner1
EXTT0=
EXTT1=
EXTT2=
EXTT3=
EXTT4=
EXTT5=
EXTT6=
EXTT7=
EXTT8=
EXTT9=
EXTT10=
PLAYORDER=
